<svg xmlns="http://www.w3.org/2000/svg" width="22" height="22" viewBox="0 0 22 22" fill="none">
    <path d="M8.15 6.15C7.6 3.25 5.55 2.9 5.05 5.35c-.25 1.2.22 2.42 1.12 3.15" stroke="#000" stroke-width="1.55" stroke-linecap="round" stroke-linejoin="round"/>
    <path d="M13.85 6.15c.55-2.9 2.6-3.25 3.1-.8.25 1.2-.22 2.42-1.12 3.15" stroke="#000" stroke-width="1.55" stroke-linecap="round" stroke-linejoin="round"/>
    <path d="M5.65 11.15c0-3.05 2.05-5.05 5.35-5.05s5.35 2 5.35 5.05v1.65c0 2.2-1.7 3.65-4.28 3.65H9.93c-2.58 0-4.28-1.45-4.28-3.65v-1.65Z" stroke="#000" stroke-width="1.65" stroke-linejoin="round"/>
    <path d="M4.45 10.45v2.6M17.55 10.45v2.6" stroke="#000" stroke-width="1.55" stroke-linecap="round"/>
    <path d="M8.25 10.6h5.5c.7 0 1.13.4 1.13 1.02v.35c0 .62-.43 1.03-1.13 1.03h-5.5c-.7 0-1.13-.41-1.13-1.03v-.35c0-.62.43-1.02 1.13-1.02Z" fill="#000"/>
    <circle cx="9.35" cy="11.8" r=".38" fill="#fff"/><circle cx="12.65" cy="11.8" r=".38" fill="#fff"/>
  </svg>
